# Blender v2.76 (sub 0) OBJ File: ''
# www.blender.org
mtllib barrel.mtl
o barrel_Barrel_grp
v 1.080692 1.654841 -0.005788
v 1.081387 1.930458 -0.007099
v 0.540509 1.933613 0.920690
v 0.552297 1.663750 0.926991
v 1.088294 0.709311 0.005985
v 0.561212 0.706190 0.922251
v 1.075417 0.392553 0.009464
v 0.555388 0.392483 0.907104
v 0.570286 0.394734 -0.969884
v 0.567026 0.705867 -0.972278
v 0.577027 1.657130 -0.968415
v 0.558699 1.930735 -0.952100
v -0.530362 1.653902 -0.957745
v -0.522514 1.927970 -0.942675
v -0.547957 0.702705 -0.966055
v -0.540479 0.388387 -0.969901
v -1.079879 0.394224 0.002130
v -1.087919 0.705809 0.011635
v -0.554406 0.390080 0.972278
v -0.546696 0.709032 0.959425
v -1.088294 1.656900 -0.012533
v -0.547029 1.657962 0.935506
v -1.059156 1.926206 -0.011608
v -0.532748 1.933450 0.921642
v -0.422542 2.449795 0.797461
v -0.900117 2.429929 0.039191
v 0.452874 2.445204 0.787315
v 0.934798 2.440299 -0.008939
v 0.465237 2.450027 -0.814041
v -0.466948 2.446127 -0.798393
v -0.778362 2.450289 0.001901
v -0.398479 2.453186 -0.703293
v 0.403764 2.458297 -0.689535
v 0.822888 2.445690 -0.003711
v 0.387385 2.412176 -0.656543
v 0.768555 2.413192 -0.014276
v 0.413833 2.442718 0.681769
v -0.734487 2.405801 -0.005137
v -0.370343 2.447677 0.689218
v -0.356390 2.411886 0.644582
v -0.451039 0.003401 -0.819073
v -0.906053 -0.009344 -0.007878
v -0.451548 -0.004446 0.796791
v 0.473365 -0.018986 0.781270
v 0.926735 -0.018184 -0.004430
v 0.493194 0.000000 -0.813363
v 0.426340 -0.007616 -0.712955
v -0.385015 -0.020617 -0.705215
v -0.788758 -0.018243 -0.013830
v 0.824568 -0.020729 -0.008571
v 0.785684 0.032784 -0.002570
v 0.406618 0.034196 -0.674690
v 0.427887 -0.022966 0.686150
v -0.386400 -0.013851 0.690985
v -0.753775 0.027992 -0.012021
v -0.373590 0.029082 0.661120
v 0.394210 2.404884 0.640947
v -0.365030 2.415323 -0.649448
v 0.402350 0.034432 0.664459
v -0.359935 0.032862 -0.675872
vt 0.338291 0.201352
vt 0.342727 0.160818
vt 0.500976 0.165322
vt 0.499032 0.205134
vt 0.333946 0.340056
vt 0.493397 0.344716
vt 0.336899 0.387170
vt 0.492754 0.391705
vt 0.172477 0.383249
vt 0.164350 0.335725
vt 0.173808 0.189226
vt 0.182468 0.148086
vt 0.002395 0.156731
vt 0.020215 0.103276
vt 0.000977 0.351187
vt 0.016555 0.412071
vt 0.999023 0.367784
vt 0.984423 0.428468
vt 0.817659 0.393171
vt 0.825577 0.345657
vt 0.656688 0.390656
vt 0.660254 0.343886
vt 0.988882 0.175058
vt 0.830140 0.197664
vt 0.664625 0.205937
vt 0.973352 0.121926
vt 0.821240 0.156217
vt 0.660808 0.165589
vt 0.644969 0.085843
vt 0.786597 0.080058
vt 0.504299 0.084869
vt 0.353420 0.082704
vt 0.207809 0.068636
vt 0.083614 0.016913
vt 0.921868 0.031071
vt 0.786093 0.062767
vt 0.903781 0.018709
vt 0.103020 0.007729
vt 0.219029 0.052220
vt 0.357880 0.068588
vt 0.223758 0.044361
vt 0.357572 0.059841
vt 0.500713 0.070478
vt 0.782869 0.053993
vt 0.644763 0.070329
vt 0.645339 0.062039
vt 0.935306 0.494682
vt 0.800395 0.458038
vt 0.649476 0.454621
vt 0.493694 0.457543
vt 0.341167 0.452772
vt 0.193022 0.446960
vt 0.055688 0.482731
vt 0.197139 0.463025
vt 0.075367 0.497749
vt 0.915665 0.509079
vt 0.795025 0.473198
vt 0.341438 0.466062
vt 0.343464 0.475931
vt 0.200719 0.471569
vt 0.491261 0.471033
vt 0.645991 0.470480
vt 0.791321 0.481449
vt 0.645784 0.478427
vt 0.729424 0.561529
vt 0.700515 0.675185
vt 0.588569 0.705816
vt 0.505239 0.623784
vt 0.114166 0.000977
vt 0.892981 0.011512
vt 0.533502 0.511870
vt 0.645916 0.480083
vt 0.500237 0.062009
vt 0.099028 0.600509
vt 0.145950 0.489429
vt 0.265241 0.475196
vt 0.336871 0.571414
vt 0.493398 0.480961
vt 0.290820 0.681275
vt 0.171742 0.695408
vt 0.084074 0.505308
vt 0.908502 0.517579
vn 0.999900 0.011000 0.007000
vn 0.980000 0.198900 0.007000
vn 0.493300 0.190300 0.848800
vn 0.500300 0.016600 0.865700
vn 0.999900 -0.004700 0.010300
vn 0.504200 0.003000 0.863600
vn 0.979000 -0.203300 0.016000
vn 0.498700 -0.210600 0.840800
vn 0.502500 -0.211500 -0.838300
vn 0.506800 -0.000700 -0.862100
vn 0.512700 0.014100 -0.858400
vn 0.490000 0.208100 -0.846500
vn -0.500300 0.020800 -0.865600
vn -0.487300 0.216700 -0.845900
vn -0.509900 0.003100 -0.860200
vn -0.491500 -0.221500 -0.842200
vn -0.974400 -0.224900 -0.001400
vn -1.000000 0.005600 0.004300
vn -0.474900 -0.226800 0.850300
vn -0.484900 0.009400 0.874500
vn -0.999600 0.026200 -0.010900
vn -0.495000 0.025000 0.868500
vn -0.976000 0.217000 -0.017000
vn -0.495200 0.201600 0.845100
vn -0.438400 0.392400 0.808600
vn -0.917900 0.395100 0.036900
vn 0.460600 0.383100 0.800700
vn 0.921200 0.389000 0.004100
vn 0.447200 0.401700 -0.799100
vn -0.482600 0.398000 -0.780200
vn 0.061400 0.998000 -0.017700
vn 0.017200 0.997800 0.063400
vn -0.043700 0.994700 0.093300
vn -0.093400 0.995600 -0.011500
vn -0.031500 0.997700 0.060200
vn -0.062000 0.998000 0.011000
vn -0.054400 0.990900 -0.122900
vn 0.062800 0.998000 0.004200
vn 0.027400 0.993700 -0.108600
vn 0.034200 0.998200 -0.049300
vn -0.434800 -0.510100 -0.742100
vn -0.856300 -0.516400 -0.007500
vn -0.416800 -0.517200 0.747500
vn 0.445400 -0.474100 0.759600
vn 0.889700 -0.456400 0.006900
vn 0.460900 -0.490200 -0.739800
vn -0.069700 -0.995100 0.070100
vn 0.050200 -0.997000 0.058900
vn 0.093600 -0.995600 -0.007000
vn -0.190000 -0.981700 -0.014400
vn -0.077000 -0.997000 -0.005400
vn -0.037700 -0.997300 0.063000
vn -0.128500 -0.979200 -0.156900
vn 0.047600 -0.991400 -0.121900
vn 0.077200 -0.997000 -0.000300
vn 0.041700 -0.997000 -0.064700
vn -0.029600 0.998600 -0.044800
vn 0.031800 0.997600 0.062100
vn -0.033600 -0.997100 -0.068300
vn 0.038100 -0.997400 0.061500
usemtl lambert3SG
s 1
f 1/1/1 2/2/2 3/3/3 4/4/4
f 5/5/5 1/1/1 4/4/4 6/6/6
f 7/7/7 5/5/5 6/6/6 8/8/8
f 5/5/5 7/7/7 9/9/9 10/10/10
f 1/1/1 5/5/5 10/10/10 11/11/11
f 2/2/2 1/1/1 11/11/11 12/12/12
f 13/13/13 14/14/14 12/12/12 11/11/11
f 15/15/15 13/13/13 11/11/11 10/10/10
f 16/16/16 15/15/15 10/10/10 9/9/9
f 15/17/15 16/18/16 17/19/17 18/20/18
f 18/20/18 17/19/17 19/21/19 20/22/20
f 20/22/20 19/21/19 8/8/8 6/6/6
f 13/23/13 15/17/15 18/20/18 21/24/21
f 21/24/21 18/20/18 20/22/20 22/25/22
f 22/25/22 20/22/20 6/6/6 4/4/4
f 14/26/14 13/23/13 21/24/21 23/27/23
f 23/27/23 21/24/21 22/25/22 24/28/24
f 24/28/24 22/25/22 4/4/4 3/3/3
f 25/29/25 26/30/26 23/27/23 24/28/24
f 27/31/27 25/29/25 24/28/24 3/3/3
f 28/32/28 27/31/27 3/3/3 2/2/2
f 29/33/29 28/32/28 2/2/2 12/12/12
f 30/34/30 29/33/29 12/12/12 14/14/14
f 14/26/14 23/27/23 26/30/26 30/35/30
f 30/35/30 26/30/26 31/36/31 32/37/32
f 29/33/29 30/34/30 32/38/32 33/39/33
f 34/40/34 33/39/33 35/41/35 36/42/36
f 28/32/28 29/33/29 33/39/33 34/40/34
f 27/31/27 28/32/28 34/40/34 37/43/37
f 38/44/38 31/36/31 39/45/39 40/46/40
f 25/29/25 27/31/27 37/43/37 39/45/39
f 39/45/39 31/36/31 26/30/26 25/29/25
f 41/47/41 42/48/42 17/19/17 16/18/16
f 19/21/19 17/19/17 42/48/42 43/49/43
f 8/8/8 19/21/19 43/49/43 44/50/44
f 7/7/7 8/8/8 44/50/44 45/51/45
f 46/52/46 41/53/41 16/16/16 9/9/9
f 9/9/9 7/7/7 45/51/45 46/52/46
f 41/53/41 46/52/46 47/54/47 48/55/48
f 48/56/48 49/57/49 42/48/42 41/47/41
f 50/58/50 47/54/47 46/52/46 45/51/45
f 51/59/51 52/60/52 47/54/47 50/58/50
f 53/61/53 50/58/50 45/51/45 44/50/44
f 43/49/43 42/48/42 49/57/49 54/62/54
f 54/62/54 49/57/49 55/63/55 56/64/56
f 54/62/54 53/61/53 44/50/44 43/49/43
f 57/65/57 36/66/36 35/67/35 58/68/58
f 58/69/58 35/41/35 33/39/33 32/38/32
f 58/70/58 32/37/32 31/36/31 38/44/38
f 38/71/38 40/72/40 57/65/57 58/68/58
f 37/43/37 34/40/34 36/42/36 57/73/57
f 57/73/57 40/46/40 39/45/39 37/43/37
f 59/74/59 56/75/56 55/76/55 60/77/60
f 53/61/53 54/62/54 56/64/56 59/78/59
f 60/77/60 52/79/52 51/80/51 59/74/59
f 59/78/59 51/59/51 50/58/50 53/61/53
f 48/55/48 47/54/47 52/60/52 60/81/60
f 60/82/60 55/63/55 49/57/49 48/56/48
