# Blender v2.76 (sub 0) OBJ File: ''
# www.blender.org
mtllib box.mtl
o Cube_Cube.003
v -1.000000 0.001452 1.000000
v -1.004511 2.001452 1.000000
v -1.000000 0.001452 -1.000000
v -1.000000 2.001452 -1.000000
v 1.000000 0.001452 1.000000
v 1.000000 2.001452 1.000000
v 1.000000 0.001452 -1.000000
v 1.000000 2.001452 -1.000000
v -1.000000 0.362068 1.000000
v -1.000000 0.362068 -1.000000
v 1.000000 0.362068 -1.000000
v 1.000000 0.362068 1.000000
v -1.000000 1.594422 1.000000
v -1.000000 1.594422 -1.000000
v 1.000000 1.594422 -1.000000
v 1.000000 1.594422 1.000000
v 0.580247 2.001452 -1.000000
v 0.580247 0.001452 -1.000000
v 0.580247 2.001452 1.000000
v 0.580247 0.001452 1.000000
v 0.580247 0.362068 1.000000
v 0.580247 0.362068 -1.000000
v 0.580247 1.594422 -1.000000
v 0.580247 1.594422 1.000000
v -0.604687 0.001452 -1.000000
v -0.604687 2.001452 1.000000
v -0.604687 0.362068 -1.000000
v -0.604687 1.594422 -1.000000
v -0.604687 2.001452 -1.000000
v -0.604687 0.001452 1.000000
v -0.604687 0.362068 1.000000
v -0.604687 1.594422 1.000000
v -1.000000 2.001452 0.599361
v -1.000000 0.001452 0.599361
v 1.000000 2.001452 0.599361
v 1.000000 0.001452 0.599361
v 1.000000 0.362068 0.599361
v -1.000000 0.362068 0.599361
v -1.000000 1.594422 0.599361
v 1.000000 1.594422 0.599361
v 0.580247 2.001452 0.599361
v 0.580247 0.001452 0.599361
v -0.604687 0.001452 0.599361
v -0.604687 2.001452 0.599361
v -1.000000 2.001452 -0.603615
v 1.000000 0.001452 -0.603615
v 1.000000 0.362068 -0.603615
v 1.000000 1.594422 -0.603615
v -1.000000 0.001452 -0.603615
v 1.000000 2.001452 -0.603615
v -1.000000 0.362068 -0.603615
v -1.000000 1.594422 -0.603615
v 0.580247 2.001452 -0.603615
v 0.580247 0.001452 -0.603615
v -0.604687 0.001452 -0.603615
v -0.604687 2.001452 -0.603615
v 0.869730 1.594422 0.599361
v 0.869730 0.362068 0.599361
v 0.869730 0.362068 -0.603615
v 0.869730 1.594422 -0.603615
v 0.580247 1.594422 -0.884065
v 0.580247 0.362068 -0.884065
v -0.604687 0.362068 -0.884065
v -0.604687 1.594422 -0.884065
v -0.897313 0.362068 -0.603615
v -0.897313 0.362068 0.599361
v -0.897313 1.594422 -0.603615
v -0.897313 1.594422 0.599361
v -0.604687 0.362068 0.888752
v 0.580247 0.362068 0.888752
v -0.604687 1.594422 0.888752
v 0.580247 1.594422 0.888752
v -0.604687 2.001452 1.000000
v 0.580247 1.903689 -0.603615
v 0.580247 1.903689 0.599361
v -0.604687 1.903689 -0.603615
v -0.604687 1.903689 0.599361
v 0.580247 0.080713 -0.603615
v 0.580247 0.080713 0.599361
v -0.604687 0.080713 -0.603615
v -0.604687 0.080713 0.599361
vt 0.601228 0.598339
vt 0.522440 0.600751
vt 0.520286 0.518573
vt 0.603718 0.519477
vt 0.106776 0.591882
vt 0.028827 0.590786
vt 0.028510 0.516828
vt 0.106669 0.517382
vt 0.600517 0.595731
vt 0.520110 0.590094
vt 0.518873 0.517340
vt 0.602777 0.517712
vt 0.103917 0.591366
vt 0.028255 0.591239
vt 0.029846 0.519973
vt 0.107417 0.519301
vt 0.403571 0.111720
vt 0.402582 0.034787
vt 0.484319 0.032326
vt 0.485194 0.111934
vt 0.102483 0.404470
vt 0.098922 0.483378
vt 0.018436 0.484701
vt 0.020547 0.405503
vt 0.106572 0.887690
vt 0.030168 0.887816
vt 0.601330 0.890144
vt 0.519578 0.890927
vt 0.105934 0.882307
vt 0.028875 0.885210
vt 0.603384 0.888862
vt 0.521463 0.890475
vt 0.603230 0.966962
vt 0.520101 0.967649
vt 0.106962 0.965571
vt 0.027504 0.967096
vt 0.600490 0.967390
vt 0.522048 0.965746
vt 0.107315 0.967395
vt 0.029326 0.966224
vt 0.491890 0.966062
vt 0.413036 0.965355
vt 0.415691 0.883573
vt 0.493330 0.885584
vt 0.413962 0.966857
vt 0.413350 0.884804
vt 0.413296 0.593315
vt 0.399533 0.870406
vt 0.401481 0.609333
vt 0.414278 0.593673
vt 0.491493 0.591908
vt 0.484069 0.409050
vt 0.483927 0.484549
vt 0.406136 0.483357
vt 0.406241 0.405420
vt 0.097559 0.113098
vt 0.099060 0.034429
vt 0.414451 0.518016
vt 0.493739 0.517771
vt 0.415830 0.516517
vt 0.491863 0.594678
vt 0.494046 0.517560
vt 0.020389 0.112923
vt 0.020007 0.032644
vt 0.493524 0.884389
vt 0.491863 0.594021
vt 0.492511 0.967654
vt 0.402086 0.610103
vt 0.123045 0.607840
vt 0.403021 0.034920
vt 0.404136 0.111069
vt 0.099721 0.114565
vt 0.100414 0.035427
vt 0.020565 0.483509
vt 0.020689 0.403878
vt 0.097912 0.404711
vt 0.099082 0.481631
vt 0.405386 0.403915
vt 0.406721 0.482594
vt 0.484060 0.033750
vt 0.483001 0.111259
vt 0.904204 0.965960
vt 0.903838 0.886801
vt 0.987485 0.966682
vt 0.902546 0.965313
vt 0.903388 0.887035
vt 0.985349 0.888188
vt 0.904107 0.599350
vt 0.987342 0.600333
vt 0.618238 0.870443
vt 0.885701 0.868500
vt 0.021993 0.111639
vt 0.020204 0.034349
vt 0.484716 0.404093
vt 0.483754 0.483434
vt 0.902597 0.594664
vt 0.902742 0.518098
vt 0.905112 0.518474
vt 0.986624 0.516889
vt 0.982888 0.592668
vt 0.985014 0.517027
vt 0.984891 0.886569
vt 0.984651 0.967672
vt 0.114462 0.128402
vt 0.112366 0.390831
vt 0.389035 0.390902
vt 0.386739 0.128385
vt 0.888239 0.874088
vt 0.888334 0.616945
vt 0.619061 0.608256
vt 0.887723 0.608216
vt 0.618720 0.610653
vt 0.888152 0.608345
vt 0.618290 0.608064
vt 0.887722 0.610934
vt 0.125781 0.868820
vt 0.124572 0.608480
vt 0.414070 0.885988
vt 0.106757 0.882326
vt 0.125390 0.869140
vt 0.399844 0.871439
vt 0.620862 0.873851
vt 0.622456 0.615640
vt 0.400947 0.867171
vt 0.122180 0.869527
vt 0.415896 0.883573
vt 0.107937 0.887690
vt 0.400947 0.865801
vt 0.388487 0.128346
vt 0.389920 0.390660
vt 0.111343 0.388713
vt 0.113225 0.127483
vt 0.099197 0.113232
vt 0.404947 0.112268
vt 0.388980 0.127021
vt 0.112957 0.126085
vn -1.000000 0.000000 0.000000
vn 0.000000 0.000000 -1.000000
vn 1.000000 0.000000 0.000000
vn 0.000000 0.000000 1.000000
vn 0.000000 -1.000000 0.000000
vn 0.000000 1.000000 0.000000
vn -1.000000 -0.005500 -0.005600
usemtl Material
s off
f 51/1/1 10/2/1 3/3/1 49/4/1
f 22/5/2 11/6/2 7/7/2 18/8/2
f 37/9/3 12/10/3 5/11/3 36/12/3
f 31/13/4 9/14/4 1/15/4 30/16/4
f 54/17/5 18/18/5 7/19/5 46/20/5
f 56/21/6 29/22/6 4/23/6 45/24/6
f 32/25/4 13/26/4 9/14/4 31/13/4
f 40/27/3 16/28/3 12/10/3 37/9/3
f 23/29/2 15/30/2 11/6/2 22/5/2
f 52/31/1 14/32/1 10/2/1 51/1/1
f 45/33/1 4/34/1 14/32/1 52/31/1
f 17/35/2 8/36/2 15/30/2 23/29/2
f 35/37/3 6/38/3 16/28/3 40/27/3
f 26/39/4 2/40/4 13/26/4 32/25/4
f 6/41/4 19/42/4 24/43/4 16/44/4
f 29/45/2 17/35/2 23/29/2 28/46/2
f 27/47/3 28/46/3 64/48/3 63/49/3
f 16/44/4 24/43/4 21/50/4 12/51/4
f 50/52/6 8/53/6 17/54/6 53/55/6
f 55/56/5 25/57/5 18/18/5 54/17/5
f 12/51/4 21/50/4 20/58/4 5/59/4
f 27/47/2 22/5/2 18/8/2 25/60/2
f 10/61/2 27/47/2 25/60/2 3/62/2
f 49/63/5 3/64/5 25/57/5 55/56/5
f 14/65/2 28/46/2 27/47/2 10/66/2
f 4/67/2 29/45/2 28/46/2 14/65/2
f 19/42/4 26/39/4 32/25/4 24/43/4
f 31/13/6 21/50/6 70/68/6 69/69/6
f 53/55/6 17/54/6 29/22/6 56/21/6
f 21/50/4 31/13/4 30/16/4 20/58/4
f 19/70/6 41/71/6 44/72/6 26/73/6
f 1/74/5 34/75/5 43/76/5 30/77/5
f 30/77/5 43/76/5 42/78/5 20/79/5
f 6/80/6 35/81/6 41/71/6 19/70/6
f 50/82/3 35/37/3 40/27/3 48/83/3
f 2/84/7 33/85/7 39/86/7 13/87/7
f 13/87/1 39/86/1 38/88/1 9/89/1
f 48/83/5 40/27/5 57/90/5 60/91/5
f 26/73/6 44/72/6 33/92/6 2/93/6
f 20/79/5 42/78/5 36/94/5 5/95/5
f 47/96/3 37/9/3 36/12/3 46/97/3
f 9/89/1 38/88/1 34/98/1 1/99/1
f 11/100/3 47/96/3 46/97/3 7/101/3
f 15/102/3 48/83/3 47/96/3 11/100/3
f 8/103/3 50/82/3 48/83/3 15/102/3
f 56/21/3 44/72/3 77/104/3 76/105/3
f 34/75/5 49/63/5 55/56/5 43/76/5
f 54/17/1 42/78/1 79/106/1 78/107/1
f 35/81/6 50/52/6 53/55/6 41/71/6
f 33/85/1 45/33/1 52/31/1 39/86/1
f 38/88/2 39/86/2 68/108/2 66/109/2
f 44/72/6 56/21/6 45/24/6 33/92/6
f 42/78/5 54/17/5 46/20/5 36/94/5
f 38/88/1 51/1/1 49/4/1 34/98/1
f 60/91/3 57/90/3 58/110/3 59/111/3
f 40/27/2 37/9/2 58/112/2 57/90/2
f 37/9/6 47/96/6 59/113/6 58/114/6
f 47/96/4 48/83/4 60/91/4 59/115/4
f 64/48/2 61/116/2 62/117/2 63/49/2
f 22/5/6 27/47/6 63/49/6 62/117/6
f 23/29/1 22/5/1 62/117/1 61/116/1
f 28/118/5 23/119/5 61/120/5 64/121/5
f 68/108/1 67/122/1 65/123/1 66/109/1
f 51/1/6 38/88/6 66/109/6 65/123/6
f 39/86/5 52/31/5 67/122/5 68/108/5
f 52/31/4 51/1/4 65/123/4 67/122/4
f 72/124/4 71/125/4 69/69/4 70/68/4
f 21/50/1 24/43/1 72/124/1 70/68/1
f 24/126/5 32/127/5 71/125/5 72/128/5
f 32/25/3 31/13/3 69/69/3 71/125/3
f 75/129/6 74/130/6 76/105/6 77/104/6
f 44/72/2 41/71/2 75/129/2 77/104/2
f 41/71/1 53/55/1 74/130/1 75/129/1
f 53/55/4 56/21/4 76/105/4 74/130/4
f 81/131/5 80/132/5 78/107/5 79/106/5
f 42/78/2 43/76/2 81/131/2 79/106/2
f 43/76/3 55/56/3 80/132/3 81/131/3
f 55/133/4 54/134/4 78/135/4 80/136/4
l 73 26
